<?xml version="1.0" ?><svg id="object" viewBox="0 0 32 32" xmlns="http://www.w3.org/2000/svg"><defs><style>.cls-1{fill:#ffc661;}.cls-2{fill:#e49f4e;}.cls-3{fill:#97c1ff;}.cls-4{fill:#82bce4;}.cls-5{fill:#eef5fd;}.cls-6{fill:#d7e2f2;}</style></defs><title/><rect class="cls-1" height="20" rx="1" ry="1" width="30" x="1" y="11"/><path class="cls-2" d="M31,12V30a1,1,0,0,1-1,1H16V11H30A1,1,0,0,1,31,12Z"/><path class="cls-3" d="M27,6V31H5V2a1,1,0,0,1,.37-.77A1,1,0,0,1,6.2,1l20,4A1,1,0,0,1,27,6Z"/><path class="cls-4" d="M27,6V31H16V3L26.2,5A1,1,0,0,1,27,6Z"/><path class="cls-5" d="M19,22H13a1,1,0,0,0-1,1v8h8V23A1,1,0,0,0,19,22Z"/><rect class="cls-5" height="6" rx="1" ry="1" width="6" x="9.5" y="7"/><rect class="cls-5" height="6" rx="1" ry="1" width="6" x="9.5" y="14"/><rect class="cls-5" height="6" rx="1" ry="1" width="6" x="16.5" y="7"/><rect class="cls-5" height="6" rx="1" ry="1" width="6" x="16.5" y="14"/><path class="cls-6" d="M20,23v8H16V22h3A1,1,0,0,1,20,23Z"/><rect class="cls-6" height="6" rx="1" ry="1" width="6" x="16.5" y="7"/><rect class="cls-6" height="6" rx="1" ry="1" width="6" x="16.5" y="14"/></svg>